<svg data-v-70b83f88="" version="1.0" xmlns="http://www.w3.org/2000/svg" xmlns:xlink="http://www.w3.org/1999/xlink" width="100%" height="100%" viewBox="0 0 340.000000 250.000000" preserveAspectRatio="xMidYMid meet" color-interpolation-filters="sRGB" style="margin: auto;">  <!----> <g data-v-70b83f88="" fill="#1378c0" class="icon-text-wrapper icon-svg-group iconsvg" transform="translate(47.56000518798828,92.02064514160156)"><g class="iconsvg-imagesvg" transform="translate(0,0)"><g><rect fill="#1378c0" fill-opacity="0" stroke-width="2" x="0" y="0" width="60" height="65.95870984763538" class="image-rect"></rect> <svg x="0" y="0" width="60" height="65.95870984763538" filtersec="colorsb8361209496" class="image-svg-svg primary" style="overflow: visible;"><svg xmlns="http://www.w3.org/2000/svg" viewBox="0.027584196999669075 0 90.94742584228516 99.97974395751953"><g fill-rule="evenodd"><path d="M22.8 28.3A37.32 37.32 0 1 1 3 77.21 37.3 37.3 0 0 1 22.8 28.3" fill="#1378c0"></path><path d="M30.76 41C1.66 54 1.27 84.61 28.88 99 19 82.51 29.7 65.69 39.64 62.09L69 49.69a28.36 28.36 0 0 0 3.87-1.76c9.34-5.27 13-18.62 6.47-26.86-.05 0-36.22 14.4-48.58 19.93z" fill="#1378c0" opacity=".8"></path><path d="M29.09 46.11l1-.46 50.15-21.2A19.72 19.72 0 0 0 89.73 0L22.8 28.3A37.31 37.31 0 0 0 28.88 99a29.22 29.22 0 0 1 .21-52.91" fill="#1378c0" opacity=".8"></path></g></svg></svg> <!----></g></g> <g transform="translate(67,7.961355209350586)"><g data-gra="path-name" fill-rule="" class="tp-name iconsvg-namesvg" transform="translate(0,0)"><g transform="scale(1)"><g><path d="M18.14-13Q21.07-12.65 22.33-11.03 23.58-9.41 23.58-7.13L23.58-7.13Q23.58-5.7 23.15-4.43 22.72-3.15 22.11-2.27 21.51-1.38 21.07-1.12L21.07-1.12Q19.35 0 10.54 0L10.54 0 2.16 0 2.16-24.62 12.31-24.62Q15.76-24.62 17.9-24.25 20.04-23.88 21.38-22.61 22.72-21.33 22.72-18.74L22.72-18.74Q22.72-16.5 21.61-15.12 20.51-13.73 18.14-13.21L18.14-13.21 18.14-13ZM14.68-19.39Q14.25-19.82 13.67-19.93 13.09-20.04 11.83-20.04L11.83-20.04Q10.58-20.04 9.93-20L9.93-20 9.93-14.73 10.36-14.73Q10.58-14.73 12.18-14.73 13.78-14.73 14.29-14.94L14.29-14.94Q14.68-15.12 15.01-15.85 15.33-16.58 15.33-17.45L15.33-17.45Q15.33-18.74 14.68-19.39L14.68-19.39ZM15.42-4.97Q15.72-5.23 15.91-5.94 16.11-6.65 16.11-7.38L16.11-7.38Q16.11-8.29 15.87-9.09 15.63-9.89 15.24-10.24L15.24-10.24Q14.86-10.62 14.14-10.75 13.43-10.88 11.75-10.88L11.75-10.88Q10.67-10.88 9.93-10.84L9.93-10.84 9.93-4.58Q11.96-4.53 13.56-4.64 15.16-4.75 15.42-4.97L15.42-4.97ZM26.56 0L26.56-25.91 33.94-26.21 33.94 0 26.56 0ZM50.1-19.87L57.48-19.87 57.48 0 51.48 0 50.66-3.33Q47.55 0.43 43.23 0.43L43.23 0.43Q41.67 0.43 40.31 0 38.95-0.43 38.26-1.25L38.26-1.25Q37.87-1.73 37.68-3.63 37.49-5.53 37.49-9.41L37.49-9.41 37.49-19.87 44.87-19.87 44.87-9.5Q44.87-8.64 44.91-7.47 44.96-6.31 45.17-6L45.17-6Q45.48-5.57 46.9-5.57L46.9-5.57 47.59-5.61Q48.8-5.66 50.1-6.18L50.1-6.18 50.1-19.87ZM73.07-5.18Q74.15-5.18 77.09-5.4L77.09-5.4Q77.48-5.4 78.51-5.48L78.51-5.48 79.16-1.04Q75.83 0.52 70.52 0.52L70.52 0.52Q65.56 0.52 62.9-1.99 60.24-4.49 60.24-9.54L60.24-9.54Q60.24-12.14 60.91-14.55 61.58-16.97 62.45-17.92L62.45-17.92Q63.35-18.87 65.82-19.56 68.28-20.25 70.7-20.25L70.7-20.25Q74.58-20.25 76.53-18.87 78.47-17.49 79.07-15.05 79.68-12.61 79.68-8.51L79.68-8.51Q76.74-8.33 73.93-8.33L73.93-8.33 67.8-8.33Q67.8-6.95 68.39-6.26 68.97-5.57 70.05-5.38 71.13-5.18 73.07-5.18L73.07-5.18ZM68.23-15.12Q67.98-14.99 67.85-13.99 67.72-13 67.67-11.75L67.67-11.75 69.92-11.75Q71.95-11.75 72.86-11.79L72.86-11.79Q72.86-13.86 72.27-14.73 71.69-15.59 70.26-15.59L70.26-15.59Q69.1-15.59 68.23-15.12L68.23-15.12ZM95.61-20.3Q98.98-20.3 100.82-18.27 102.65-16.24 102.65-11.1L102.65-11.1Q102.65-7.34 101.9-4.69 101.14-2.03 100.19-1.3L100.19-1.3Q99.07-0.39 96.87 0.04 94.66 0.48 91.86 0.48L91.86 0.48Q89.7 0.48 87.02 0.15 84.34-0.17 82.23-0.86L82.23-0.86 82.23-25.91 89.7-26.21 89.7-22.15Q89.7-21.81 89.68-20.56 89.65-19.3 89.57-18.46 89.48-17.62 89.31-17.19L89.31-17.19 89.57-16.89Q90.56-18.4 92.07-19.35 93.58-20.3 95.61-20.3L95.61-20.3ZM94.4-4.71Q94.66-5.14 94.86-6.74 95.05-8.33 95.05-9.8L95.05-9.8Q95.05-11.53 94.9-12.52 94.75-13.52 94.17-14.1 93.58-14.68 92.38-14.68L92.38-14.68Q91.3-14.68 89.61-14.38L89.61-14.38 89.61-4.62Q91.21-4.36 92.94-4.36L92.94-4.36Q94.19-4.36 94.4-4.71L94.4-4.71ZM117.55-5.18Q118.63-5.18 121.57-5.4L121.57-5.4Q121.96-5.4 122.99-5.48L122.99-5.48 123.64-1.04Q120.32 0.52 115 0.52L115 0.52Q110.04 0.52 107.38-1.99 104.73-4.49 104.73-9.54L104.73-9.54Q104.73-12.14 105.4-14.55 106.07-16.97 106.93-17.92L106.93-17.92Q107.84-18.87 110.3-19.56 112.76-20.25 115.18-20.25L115.18-20.25Q119.06-20.25 121.01-18.87 122.95-17.49 123.56-15.05 124.16-12.61 124.16-8.51L124.16-8.51Q121.22-8.33 118.42-8.33L118.42-8.33 112.28-8.33Q112.28-6.95 112.87-6.26 113.45-5.57 114.53-5.38 115.61-5.18 117.55-5.18L117.55-5.18ZM112.72-15.12Q112.46-14.99 112.33-13.99 112.2-13 112.15-11.75L112.15-11.75 114.4-11.75Q116.43-11.75 117.34-11.79L117.34-11.79Q117.34-13.86 116.75-14.73 116.17-15.59 114.75-15.59L114.75-15.59Q113.58-15.59 112.72-15.12L112.72-15.12ZM139.06-20.3Q139.62-20.3 140.25-20.17 140.87-20.04 141.18-19.87L141.18-19.87Q141.18-18.92 140.96-16.73 140.74-14.55 140.57-13.65L140.57-13.65Q140.14-13.69 138.97-13.69L138.97-13.69Q136.25-13.69 134.14-13.39L134.14-13.39 134.14 0 126.75 0 126.75-19.87 132.93-19.87 133.79-16.67 133.83-16.67Q135.09-18.31 136.51-19.3 137.94-20.3 139.06-20.3L139.06-20.3ZM155.43-20.3Q155.99-20.3 156.61-20.17 157.24-20.04 157.54-19.87L157.54-19.87Q157.54-18.92 157.33-16.73 157.11-14.55 156.94-13.65L156.94-13.65Q156.51-13.69 155.34-13.69L155.34-13.69Q152.62-13.69 150.5-13.39L150.5-13.39 150.5 0 143.12 0 143.12-19.87 149.29-19.87 150.16-16.67 150.2-16.67Q151.45-18.31 152.88-19.3 154.3-20.3 155.43-20.3L155.43-20.3ZM172.23-19.87L180.04-19.87 174.86-3.24Q173.35 1.55 172.14 3.74 170.93 5.92 169.72 6.78L169.72 6.78Q169.03 7.26 167.54 7.51 166.05 7.77 164.32 7.77L164.32 7.77Q161.73 7.77 160.18 7.3L160.18 7.3Q160.13 6.26 160.26 4.77 160.39 3.28 160.61 2.25L160.61 2.25Q162.42 2.33 164.15 2.33L164.15 2.33Q165.45 2.33 166.09 2.29L166.09 2.29Q166.74 1.04 167.3-0.35L167.3-0.35 164.32-0.52 157.67-19.87 165.49-19.87 168.94-5.96 168.99-5.14 169.12-5.14 172.23-19.87Z" transform="translate(-2.1600000858306885, 26.209999084472656)"></path></g> <!----> <!----> <!----> <!----> <!----> <!----> <!----></g></g> <g data-gra="path-slogan" fill-rule="" class="tp-slogan iconsvg-slogansvg" fill="#1378c0" transform="translate(7.144989013671875,39.97999954223633)"><rect width="0"></rect> <rect x="166.5900115966797" width="1.28997802734375"></rect> <g transform="translate(0,0)"><g transform="scale(1)"><path d="M3.98 0.14C4.48 0.14 4.93 0.05 5.35-0.14C5.76-0.34 6.11-0.61 6.41-0.97C6.71-1.32 6.95-1.75 7.11-2.26C7.27-2.77 7.36-3.34 7.36-3.97C7.36-4.60 7.27-5.16 7.11-5.66C6.95-6.16 6.71-6.58 6.41-6.93C6.11-7.28 5.76-7.55 5.35-7.73C4.93-7.92 4.48-8.02 3.98-8.02C3.49-8.02 3.03-7.92 2.62-7.74C2.21-7.56 1.86-7.29 1.56-6.94C1.26-6.59 1.03-6.17 0.87-5.67C0.71-5.17 0.62-4.60 0.62-3.97C0.62-3.34 0.71-2.77 0.87-2.26C1.03-1.75 1.26-1.32 1.56-0.97C1.86-0.61 2.21-0.34 2.62-0.14C3.03 0.05 3.49 0.14 3.98 0.14ZM3.98-0.73C3.63-0.73 3.31-0.81 3.03-0.96C2.75-1.11 2.50-1.33 2.30-1.61C2.09-1.90 1.94-2.24 1.82-2.63C1.71-3.03 1.66-3.48 1.66-3.97C1.66-4.46 1.71-4.90 1.82-5.29C1.94-5.68 2.09-6.02 2.30-6.29C2.50-6.56 2.75-6.77 3.03-6.92C3.31-7.07 3.63-7.14 3.98-7.14C4.34-7.14 4.65-7.07 4.94-6.92C5.22-6.77 5.47-6.56 5.67-6.29C5.87-6.02 6.03-5.68 6.14-5.29C6.26-4.90 6.31-4.46 6.31-3.97C6.31-3.48 6.26-3.03 6.14-2.63C6.03-2.24 5.87-1.90 5.67-1.61C5.47-1.33 5.22-1.11 4.94-0.96C4.65-0.81 4.34-0.73 3.98-0.73ZM9.01-7.87L9.01-3.25C9.01-2.62 9.08-2.09 9.23-1.66C9.37-1.22 9.57-0.87 9.82-0.61C10.07-0.34 10.37-0.15 10.72-0.03C11.07 0.09 11.44 0.14 11.84 0.14C12.24 0.14 12.62 0.09 12.96-0.03C13.30-0.15 13.60-0.34 13.85-0.61C14.11-0.87 14.30-1.22 14.45-1.66C14.59-2.09 14.66-2.62 14.66-3.25L14.66-7.87L13.70-7.87L13.70-3.23C13.70-2.76 13.66-2.36 13.56-2.04C13.46-1.72 13.33-1.46 13.16-1.27C13.00-1.08 12.80-0.94 12.58-0.86C12.35-0.77 12.11-0.73 11.84-0.73C11.59-0.73 11.35-0.77 11.12-0.86C10.90-0.94 10.71-1.08 10.54-1.27C10.38-1.46 10.25-1.72 10.15-2.04C10.06-2.36 10.01-2.76 10.01-3.23L10.01-7.87ZM17.78-4.14L17.78-7.07L19.10-7.07C19.72-7.07 20.19-6.96 20.52-6.76C20.85-6.55 21.01-6.18 21.01-5.66C21.01-5.15 20.85-4.77 20.52-4.52C20.19-4.27 19.72-4.14 19.10-4.14ZM21.11 0L22.24 0L20.24-3.43C20.78-3.57 21.21-3.82 21.53-4.19C21.85-4.56 22.01-5.05 22.01-5.66C22.01-6.07 21.94-6.42 21.80-6.70C21.67-6.98 21.48-7.20 21.23-7.38C20.99-7.56 20.70-7.68 20.36-7.76C20.02-7.83 19.65-7.87 19.25-7.87L16.79-7.87L16.79 0L17.78 0L17.78-3.32L19.21-3.32ZM26.21-1.72L25.61-1.02C25.95-0.66 26.36-0.38 26.83-0.17C27.30 0.04 27.82 0.14 28.37 0.14C28.78 0.14 29.16 0.09 29.48-0.03C29.81-0.15 30.09-0.31 30.32-0.51C30.56-0.71 30.73-0.95 30.86-1.22C30.98-1.50 31.04-1.79 31.04-2.10C31.04-2.39 31.00-2.64 30.92-2.86C30.83-3.08 30.72-3.27 30.58-3.44C30.43-3.60 30.26-3.75 30.06-3.87C29.86-3.99 29.65-4.10 29.42-4.20L28.31-4.68C28.15-4.74 27.99-4.81 27.84-4.89C27.69-4.97 27.55-5.05 27.42-5.15C27.29-5.25 27.19-5.37 27.11-5.50C27.04-5.63 27-5.80 27-5.99C27-6.35 27.13-6.63 27.40-6.83C27.67-7.04 28.02-7.14 28.46-7.14C28.83-7.14 29.16-7.07 29.45-6.94C29.75-6.81 30.01-6.63 30.25-6.40L30.79-7.04C30.51-7.33 30.17-7.57 29.77-7.75C29.37-7.93 28.94-8.02 28.46-8.02C28.10-8.02 27.77-7.96 27.47-7.86C27.17-7.76 26.91-7.61 26.69-7.42C26.47-7.23 26.30-7.01 26.18-6.76C26.05-6.50 25.99-6.22 25.99-5.93C25.99-5.64 26.04-5.39 26.14-5.17C26.23-4.95 26.36-4.76 26.51-4.60C26.66-4.44 26.83-4.30 27.02-4.19C27.22-4.08 27.40-3.98 27.59-3.90L28.72-3.41C28.90-3.32 29.07-3.24 29.23-3.16C29.39-3.08 29.53-2.99 29.65-2.89C29.76-2.79 29.85-2.67 29.92-2.53C29.99-2.39 30.02-2.22 30.02-2.02C30.02-1.63 29.88-1.32 29.59-1.09C29.30-0.85 28.90-0.73 28.38-0.73C27.97-0.73 27.58-0.82 27.20-1.00C26.82-1.18 26.49-1.42 26.21-1.72ZM32.56-7.87L32.56-3.25C32.56-2.62 32.63-2.09 32.77-1.66C32.92-1.22 33.11-0.87 33.37-0.61C33.62-0.34 33.92-0.15 34.27-0.03C34.61 0.09 34.99 0.14 35.39 0.14C35.79 0.14 36.16 0.09 36.50-0.03C36.85-0.15 37.15-0.34 37.40-0.61C37.65-0.87 37.85-1.22 37.99-1.66C38.14-2.09 38.21-2.62 38.21-3.25L38.21-7.87L37.25-7.87L37.25-3.23C37.25-2.76 37.20-2.36 37.10-2.04C37.01-1.72 36.88-1.46 36.71-1.27C36.54-1.08 36.34-0.94 36.12-0.86C35.90-0.77 35.65-0.73 35.39-0.73C35.13-0.73 34.89-0.77 34.67-0.86C34.44-0.94 34.25-1.08 34.09-1.27C33.92-1.46 33.79-1.72 33.70-2.04C33.60-2.36 33.55-2.76 33.55-3.23L33.55-7.87ZM39.88-3.94C39.88-3.30 39.96-2.72 40.13-2.21C40.31-1.71 40.55-1.28 40.85-0.93C41.16-0.58 41.53-0.32 41.95-0.13C42.37 0.05 42.82 0.14 43.32 0.14C43.82 0.14 44.27 0.04 44.66-0.16C45.06-0.36 45.41-0.64 45.72-1.00L45.16-1.61C44.90-1.33 44.63-1.11 44.35-0.96C44.06-0.81 43.73-0.73 43.34-0.73C42.97-0.73 42.63-0.81 42.33-0.96C42.03-1.11 41.78-1.33 41.57-1.61C41.36-1.89 41.20-2.23 41.08-2.62C40.97-3.02 40.91-3.46 40.91-3.96C40.91-4.45 40.97-4.89 41.09-5.28C41.21-5.67 41.38-6.01 41.59-6.28C41.81-6.56 42.07-6.77 42.37-6.92C42.68-7.07 43.02-7.14 43.39-7.14C43.73-7.14 44.02-7.07 44.27-6.94C44.53-6.81 44.76-6.63 44.96-6.41L45.53-7.04C45.30-7.30 45-7.53 44.64-7.72C44.28-7.92 43.86-8.02 43.38-8.02C42.88-8.02 42.41-7.92 41.98-7.73C41.55-7.55 41.18-7.28 40.87-6.92C40.56-6.57 40.32-6.14 40.14-5.64C39.96-5.14 39.88-4.57 39.88-3.94ZM46.38-3.94C46.38-3.30 46.47-2.72 46.64-2.21C46.81-1.71 47.05-1.28 47.36-0.93C47.67-0.58 48.03-0.32 48.45-0.13C48.87 0.05 49.33 0.14 49.82 0.14C50.33 0.14 50.78 0.04 51.17-0.16C51.56-0.36 51.91-0.64 52.22-1.00L51.66-1.61C51.40-1.33 51.13-1.11 50.85-0.96C50.57-0.81 50.23-0.73 49.85-0.73C49.47-0.73 49.13-0.81 48.83-0.96C48.53-1.11 48.28-1.33 48.07-1.61C47.86-1.89 47.70-2.23 47.59-2.62C47.47-3.02 47.41-3.46 47.41-3.96C47.41-4.45 47.47-4.89 47.59-5.28C47.71-5.67 47.88-6.01 48.10-6.28C48.31-6.56 48.57-6.77 48.88-6.92C49.18-7.07 49.52-7.14 49.90-7.14C50.23-7.14 50.53-7.07 50.78-6.94C51.03-6.81 51.26-6.63 51.47-6.41L52.03-7.04C51.80-7.30 51.50-7.53 51.14-7.72C50.78-7.92 50.36-8.02 49.88-8.02C49.38-8.02 48.91-7.92 48.49-7.73C48.06-7.55 47.69-7.28 47.38-6.92C47.06-6.57 46.82-6.14 46.64-5.64C46.47-5.14 46.38-4.57 46.38-3.94ZM53.69-7.87L53.69 0L58.34 0L58.34-0.85L54.68-0.85L54.68-3.71L57.67-3.71L57.67-4.56L54.68-4.56L54.68-7.03L58.22-7.03L58.22-7.87ZM60.04-1.72L59.44-1.02C59.78-0.66 60.19-0.38 60.66-0.17C61.13 0.04 61.64 0.14 62.20 0.14C62.61 0.14 62.98 0.09 63.31-0.03C63.64-0.15 63.92-0.31 64.15-0.51C64.38-0.71 64.56-0.95 64.69-1.22C64.81-1.50 64.87-1.79 64.87-2.10C64.87-2.39 64.83-2.64 64.75-2.86C64.66-3.08 64.55-3.27 64.40-3.44C64.26-3.60 64.09-3.75 63.89-3.87C63.69-3.99 63.48-4.10 63.25-4.20L62.14-4.68C61.98-4.74 61.82-4.81 61.67-4.89C61.52-4.97 61.38-5.05 61.25-5.15C61.12-5.25 61.02-5.37 60.94-5.50C60.87-5.63 60.83-5.80 60.83-5.99C60.83-6.35 60.96-6.63 61.23-6.83C61.50-7.04 61.85-7.14 62.29-7.14C62.66-7.14 62.99-7.07 63.28-6.94C63.57-6.81 63.84-6.63 64.08-6.40L64.62-7.04C64.34-7.33 64.00-7.57 63.60-7.75C63.20-7.93 62.76-8.02 62.29-8.02C61.93-8.02 61.60-7.96 61.30-7.86C61.00-7.76 60.74-7.61 60.52-7.42C60.30-7.23 60.13-7.01 60.01-6.76C59.88-6.50 59.82-6.22 59.82-5.93C59.82-5.64 59.87-5.39 59.96-5.17C60.06-4.95 60.18-4.76 60.34-4.60C60.49-4.44 60.66-4.30 60.85-4.19C61.04-4.08 61.23-3.98 61.42-3.90L62.54-3.41C62.73-3.32 62.90-3.24 63.06-3.16C63.22-3.08 63.36-2.99 63.47-2.89C63.59-2.79 63.68-2.67 63.75-2.53C63.82-2.39 63.85-2.22 63.85-2.02C63.85-1.63 63.71-1.32 63.42-1.09C63.13-0.85 62.73-0.73 62.21-0.73C61.80-0.73 61.41-0.82 61.03-1.00C60.65-1.18 60.32-1.42 60.04-1.72ZM66.28-1.72L65.68-1.02C66.02-0.66 66.43-0.38 66.90-0.17C67.37 0.04 67.88 0.14 68.44 0.14C68.85 0.14 69.22 0.09 69.55-0.03C69.88-0.15 70.16-0.31 70.39-0.51C70.62-0.71 70.80-0.95 70.93-1.22C71.05-1.50 71.11-1.79 71.11-2.10C71.11-2.39 71.07-2.64 70.99-2.86C70.90-3.08 70.79-3.27 70.64-3.44C70.50-3.60 70.33-3.75 70.13-3.87C69.93-3.99 69.72-4.10 69.49-4.20L68.38-4.68C68.22-4.74 68.06-4.81 67.91-4.89C67.76-4.97 67.62-5.05 67.49-5.15C67.36-5.25 67.26-5.37 67.18-5.50C67.11-5.63 67.07-5.80 67.07-5.99C67.07-6.35 67.20-6.63 67.47-6.83C67.74-7.04 68.09-7.14 68.53-7.14C68.90-7.14 69.23-7.07 69.52-6.94C69.81-6.81 70.08-6.63 70.32-6.40L70.86-7.04C70.58-7.33 70.24-7.57 69.84-7.75C69.44-7.93 69.00-8.02 68.53-8.02C68.17-8.02 67.84-7.96 67.54-7.86C67.24-7.76 66.98-7.61 66.76-7.42C66.54-7.23 66.37-7.01 66.25-6.76C66.12-6.50 66.06-6.22 66.06-5.93C66.06-5.64 66.11-5.39 66.20-5.17C66.30-4.95 66.42-4.76 66.58-4.60C66.73-4.44 66.90-4.30 67.09-4.19C67.28-4.08 67.47-3.98 67.66-3.90L68.78-3.41C68.97-3.32 69.14-3.24 69.30-3.16C69.46-3.08 69.60-2.99 69.71-2.89C69.83-2.79 69.92-2.67 69.99-2.53C70.06-2.39 70.09-2.22 70.09-2.02C70.09-1.63 69.95-1.32 69.66-1.09C69.37-0.85 68.97-0.73 68.45-0.73C68.04-0.73 67.65-0.82 67.27-1.00C66.89-1.18 66.56-1.42 66.28-1.72ZM72.14 1.46L72.38 2.04C72.87 1.83 73.26 1.54 73.54 1.15C73.82 0.77 73.96 0.32 73.96-0.20C73.96-0.56 73.88-0.85 73.73-1.06C73.59-1.26 73.38-1.37 73.13-1.37C72.93-1.37 72.76-1.31 72.61-1.18C72.47-1.06 72.40-0.89 72.40-0.67C72.40-0.45 72.47-0.28 72.61-0.16C72.75-0.05 72.91 0.01 73.10 0.01C73.16 0.01 73.20 0.01 73.22 0C73.22 0.33 73.13 0.62 72.94 0.86C72.74 1.11 72.48 1.31 72.14 1.46ZM78.07-7.87L78.07 0L79.02 0L79.02-4.12C79.02-4.53 79.01-4.95 78.98-5.36C78.95-5.77 78.92-6.18 78.89-6.58L78.94-6.58L79.79-4.96L82.64 0L83.68 0L83.68-7.87L82.73-7.87L82.73-3.80C82.73-3.39 82.74-2.97 82.77-2.54C82.80-2.11 82.82-1.70 82.85-1.30L82.80-1.30L81.95-2.93L79.10-7.87ZM88.74 0.14C89.24 0.14 89.69 0.05 90.10-0.14C90.51-0.34 90.87-0.61 91.17-0.97C91.47-1.32 91.70-1.75 91.87-2.26C92.03-2.77 92.11-3.34 92.11-3.97C92.11-4.60 92.03-5.16 91.87-5.66C91.70-6.16 91.47-6.58 91.17-6.93C90.87-7.28 90.51-7.55 90.10-7.73C89.69-7.92 89.24-8.02 88.74-8.02C88.24-8.02 87.79-7.92 87.38-7.74C86.97-7.56 86.61-7.29 86.32-6.94C86.02-6.59 85.79-6.17 85.63-5.67C85.46-5.17 85.38-4.60 85.38-3.97C85.38-3.34 85.46-2.77 85.63-2.26C85.79-1.75 86.02-1.32 86.32-0.97C86.61-0.61 86.97-0.34 87.38-0.14C87.79 0.05 88.24 0.14 88.74 0.14ZM88.74-0.73C88.39-0.73 88.07-0.81 87.79-0.96C87.50-1.11 87.26-1.33 87.05-1.61C86.85-1.90 86.69-2.24 86.58-2.63C86.47-3.03 86.41-3.48 86.41-3.97C86.41-4.46 86.47-4.90 86.58-5.29C86.69-5.68 86.85-6.02 87.05-6.29C87.26-6.56 87.50-6.77 87.79-6.92C88.07-7.07 88.39-7.14 88.74-7.14C89.09-7.14 89.41-7.07 89.69-6.92C89.98-6.77 90.22-6.56 90.43-6.29C90.63-6.02 90.79-5.68 90.90-5.29C91.01-4.90 91.07-4.46 91.07-3.97C91.07-3.48 91.01-3.03 90.90-2.63C90.79-2.24 90.63-1.90 90.43-1.61C90.22-1.33 89.98-1.11 89.69-0.96C89.41-0.81 89.09-0.73 88.74-0.73ZM95.20-7.03L95.20 0L96.20 0L96.20-7.03L98.58-7.03L98.58-7.87L92.82-7.87L92.82-7.03ZM102.42-7.87L102.42 0L103.34 0L103.34-4.33C103.34-4.68 103.33-5.07 103.30-5.50C103.26-5.92 103.24-6.31 103.21-6.66L103.26-6.66L103.88-4.91L105.41-0.79L105.97-0.79L107.48-4.91L108.12-6.66L108.17-6.66C108.14-6.31 108.11-5.92 108.08-5.50C108.05-5.07 108.04-4.68 108.04-4.33L108.04 0L108.98 0L108.98-7.87L107.81-7.87L106.30-3.65L105.74-2.04L105.70-2.04L105.12-3.65L103.60-7.87ZM112.42-3.05L112.42 0L113.42 0L113.42-3.05L115.79-7.87L114.74-7.87L113.74-5.65C113.62-5.36 113.49-5.08 113.35-4.80C113.22-4.52 113.08-4.23 112.94-3.94L112.90-3.94C112.76-4.23 112.63-4.52 112.51-4.80C112.39-5.08 112.27-5.36 112.14-5.65L111.12-7.87L110.05-7.87ZM119.30-1.72L118.70-1.02C119.05-0.66 119.46-0.38 119.93-0.17C120.40 0.04 120.91 0.14 121.46 0.14C121.88 0.14 122.25 0.09 122.58-0.03C122.91-0.15 123.19-0.31 123.42-0.51C123.65-0.71 123.83-0.95 123.95-1.22C124.08-1.50 124.14-1.79 124.14-2.10C124.14-2.39 124.10-2.64 124.01-2.86C123.93-3.08 123.82-3.27 123.67-3.44C123.53-3.60 123.36-3.75 123.16-3.87C122.96-3.99 122.74-4.10 122.52-4.20L121.40-4.68C121.24-4.74 121.09-4.81 120.94-4.89C120.78-4.97 120.64-5.05 120.52-5.15C120.39-5.25 120.29-5.37 120.21-5.50C120.13-5.63 120.10-5.80 120.10-5.99C120.10-6.35 120.23-6.63 120.50-6.83C120.77-7.04 121.12-7.14 121.56-7.14C121.93-7.14 122.26-7.07 122.55-6.94C122.84-6.81 123.11-6.63 123.35-6.40L123.89-7.04C123.61-7.33 123.27-7.57 122.87-7.75C122.47-7.93 122.03-8.02 121.56-8.02C121.20-8.02 120.87-7.96 120.57-7.86C120.27-7.76 120.01-7.61 119.79-7.42C119.57-7.23 119.40-7.01 119.27-6.76C119.15-6.50 119.09-6.22 119.09-5.93C119.09-5.64 119.14-5.39 119.23-5.17C119.33-4.95 119.45-4.76 119.60-4.60C119.76-4.44 119.93-4.30 120.12-4.19C120.31-4.08 120.50-3.98 120.68-3.90L121.81-3.41C122.00-3.32 122.17-3.24 122.33-3.16C122.49-3.08 122.63-2.99 122.74-2.89C122.86-2.79 122.95-2.67 123.02-2.53C123.09-2.39 123.12-2.22 123.12-2.02C123.12-1.63 122.98-1.32 122.69-1.09C122.40-0.85 122.00-0.73 121.48-0.73C121.07-0.73 120.67-0.82 120.29-1.00C119.91-1.18 119.58-1.42 119.30-1.72ZM125.65-7.87L125.65-3.25C125.65-2.62 125.72-2.09 125.87-1.66C126.01-1.22 126.21-0.87 126.46-0.61C126.71-0.34 127.01-0.15 127.36-0.03C127.71 0.09 128.08 0.14 128.48 0.14C128.88 0.14 129.26 0.09 129.60-0.03C129.94-0.15 130.24-0.34 130.49-0.61C130.75-0.87 130.94-1.22 131.09-1.66C131.23-2.09 131.30-2.62 131.30-3.25L131.30-7.87L130.34-7.87L130.34-3.23C130.34-2.76 130.30-2.36 130.20-2.04C130.10-1.72 129.97-1.46 129.80-1.27C129.64-1.08 129.44-0.94 129.22-0.86C128.99-0.77 128.75-0.73 128.48-0.73C128.23-0.73 127.99-0.77 127.76-0.86C127.54-0.94 127.35-1.08 127.18-1.27C127.02-1.46 126.89-1.72 126.79-2.04C126.70-2.36 126.65-2.76 126.65-3.23L126.65-7.87ZM132.97-3.94C132.97-3.30 133.06-2.72 133.23-2.21C133.40-1.71 133.64-1.28 133.95-0.93C134.26-0.58 134.62-0.32 135.04-0.13C135.46 0.05 135.92 0.14 136.42 0.14C136.92 0.14 137.37 0.04 137.76-0.16C138.15-0.36 138.50-0.64 138.82-1.00L138.25-1.61C138.00-1.33 137.73-1.11 137.44-0.96C137.16-0.81 136.82-0.73 136.44-0.73C136.06-0.73 135.73-0.81 135.43-0.96C135.13-1.11 134.87-1.33 134.66-1.61C134.46-1.89 134.29-2.23 134.18-2.62C134.06-3.02 134.00-3.46 134.00-3.96C134.00-4.45 134.06-4.89 134.18-5.28C134.30-5.67 134.47-6.01 134.69-6.28C134.90-6.56 135.16-6.77 135.47-6.92C135.77-7.07 136.11-7.14 136.49-7.14C136.82-7.14 137.12-7.07 137.37-6.94C137.62-6.81 137.85-6.63 138.06-6.41L138.62-7.04C138.39-7.30 138.10-7.53 137.74-7.72C137.38-7.92 136.96-8.02 136.48-8.02C135.97-8.02 135.51-7.92 135.08-7.73C134.65-7.55 134.28-7.28 133.97-6.92C133.66-6.57 133.41-6.14 133.24-5.64C133.06-5.14 132.97-4.57 132.97-3.94ZM139.48-3.94C139.48-3.30 139.56-2.72 139.73-2.21C139.91-1.71 140.15-1.28 140.45-0.93C140.76-0.58 141.13-0.32 141.55-0.13C141.97 0.05 142.42 0.14 142.92 0.14C143.42 0.14 143.87 0.04 144.26-0.16C144.66-0.36 145.01-0.64 145.32-1.00L144.76-1.61C144.50-1.33 144.23-1.11 143.95-0.96C143.66-0.81 143.33-0.73 142.94-0.73C142.57-0.73 142.23-0.81 141.93-0.96C141.63-1.11 141.38-1.33 141.17-1.61C140.96-1.89 140.80-2.23 140.68-2.62C140.57-3.02 140.51-3.46 140.51-3.96C140.51-4.45 140.57-4.89 140.69-5.28C140.81-5.67 140.98-6.01 141.19-6.28C141.41-6.56 141.67-6.77 141.97-6.92C142.28-7.07 142.62-7.14 142.99-7.14C143.33-7.14 143.62-7.07 143.87-6.94C144.13-6.81 144.36-6.63 144.56-6.41L145.13-7.04C144.90-7.30 144.60-7.53 144.24-7.72C143.88-7.92 143.46-8.02 142.98-8.02C142.48-8.02 142.01-7.92 141.58-7.73C141.15-7.55 140.78-7.28 140.47-6.92C140.16-6.57 139.92-6.14 139.74-5.64C139.56-5.14 139.48-4.57 139.48-3.94ZM146.78-7.87L146.78 0L151.44 0L151.44-0.85L147.78-0.85L147.78-3.71L150.77-3.71L150.77-4.56L147.78-4.56L147.78-7.03L151.32-7.03L151.32-7.87ZM153.13-1.72L152.53-1.02C152.88-0.66 153.28-0.38 153.76-0.17C154.23 0.04 154.74 0.14 155.29 0.14C155.71 0.14 156.08 0.09 156.41-0.03C156.74-0.15 157.02-0.31 157.25-0.51C157.48-0.71 157.66-0.95 157.78-1.22C157.91-1.50 157.97-1.79 157.97-2.10C157.97-2.39 157.93-2.64 157.84-2.86C157.76-3.08 157.64-3.27 157.50-3.44C157.36-3.60 157.18-3.75 156.98-3.87C156.78-3.99 156.57-4.10 156.35-4.20L155.23-4.68C155.07-4.74 154.92-4.81 154.76-4.89C154.61-4.97 154.47-5.05 154.34-5.15C154.22-5.25 154.11-5.37 154.04-5.50C153.96-5.63 153.92-5.80 153.92-5.99C153.92-6.35 154.06-6.63 154.33-6.83C154.59-7.04 154.95-7.14 155.39-7.14C155.76-7.14 156.09-7.07 156.38-6.94C156.67-6.81 156.94-6.63 157.18-6.40L157.72-7.04C157.44-7.33 157.10-7.57 156.70-7.75C156.30-7.93 155.86-8.02 155.39-8.02C155.03-8.02 154.70-7.96 154.40-7.86C154.10-7.76 153.84-7.61 153.62-7.42C153.40-7.23 153.23-7.01 153.10-6.76C152.98-6.50 152.92-6.22 152.92-5.93C152.92-5.64 152.96-5.39 153.06-5.17C153.16-4.95 153.28-4.76 153.43-4.60C153.58-4.44 153.76-4.30 153.95-4.19C154.14-4.08 154.33-3.98 154.51-3.90L155.64-3.41C155.82-3.32 156.00-3.24 156.16-3.16C156.32-3.08 156.45-2.99 156.57-2.89C156.69-2.79 156.78-2.67 156.85-2.53C156.91-2.39 156.95-2.22 156.95-2.02C156.95-1.63 156.80-1.32 156.52-1.09C156.23-0.85 155.82-0.73 155.30-0.73C154.90-0.73 154.50-0.82 154.12-1.00C153.74-1.18 153.41-1.42 153.13-1.72ZM159.37-1.72L158.77-1.02C159.12-0.66 159.52-0.38 160.00-0.17C160.47 0.04 160.98 0.14 161.53 0.14C161.95 0.14 162.32 0.09 162.65-0.03C162.98-0.15 163.26-0.31 163.49-0.51C163.72-0.71 163.90-0.95 164.02-1.22C164.15-1.50 164.21-1.79 164.21-2.10C164.21-2.39 164.17-2.64 164.08-2.86C164.00-3.08 163.88-3.27 163.74-3.44C163.60-3.60 163.42-3.75 163.22-3.87C163.02-3.99 162.81-4.10 162.59-4.20L161.47-4.68C161.31-4.74 161.16-4.81 161.00-4.89C160.85-4.97 160.71-5.05 160.58-5.15C160.46-5.25 160.35-5.37 160.28-5.50C160.20-5.63 160.16-5.80 160.16-5.99C160.16-6.35 160.30-6.63 160.57-6.83C160.83-7.04 161.19-7.14 161.63-7.14C162.00-7.14 162.33-7.07 162.62-6.94C162.91-6.81 163.18-6.63 163.42-6.40L163.96-7.04C163.68-7.33 163.34-7.57 162.94-7.75C162.54-7.93 162.10-8.02 161.63-8.02C161.27-8.02 160.94-7.96 160.64-7.86C160.34-7.76 160.08-7.61 159.86-7.42C159.64-7.23 159.47-7.01 159.34-6.76C159.22-6.50 159.16-6.22 159.16-5.93C159.16-5.64 159.20-5.39 159.30-5.17C159.40-4.95 159.52-4.76 159.67-4.60C159.82-4.44 160.00-4.30 160.19-4.19C160.38-4.08 160.57-3.98 160.75-3.90L161.88-3.41C162.06-3.32 162.24-3.24 162.40-3.16C162.56-3.08 162.69-2.99 162.81-2.89C162.93-2.79 163.02-2.67 163.09-2.53C163.15-2.39 163.19-2.22 163.19-2.02C163.19-1.63 163.04-1.32 162.76-1.09C162.47-0.85 162.06-0.73 161.54-0.73C161.14-0.73 160.74-0.82 160.36-1.00C159.98-1.18 159.65-1.42 159.37-1.72Z" transform="translate(-0.624, 8.016)"></path></g></g></g></g></g><defs v-gra="od"></defs></svg>